<svg width="46" height="64" viewBox="0 0 46 64" fill="none" xmlns="http://www.w3.org/2000/svg">
<g clip-path="url(#clip0_52_146)">
<path d="M25.7355 64.0421C25.4931 64.0137 25.2518 63.9789 25.0085 63.9597C22.9141 63.795 20.9636 63.1874 19.1904 62.0774C15.7656 59.9342 13.6109 56.9162 12.8134 52.9795C12.6417 52.1321 12.5535 51.2756 12.4987 50.4126C12.4699 49.9551 12.3873 49.4994 12.3121 49.0446C12.1023 47.7753 11.8823 46.507 11.6678 45.2378C11.4988 44.243 11.3317 43.2474 11.1637 42.2527C11.1553 42.2033 11.1396 42.1548 11.0857 42.099C10.213 44.8003 9.34037 47.5008 8.46677 50.2049C7.75935 50.2049 7.0705 50.2049 6.35286 50.2049C5.46719 47.5136 4.57874 44.815 3.68936 42.1154C3.67172 42.1173 3.65408 42.1191 3.63737 42.12C3.19361 44.8086 2.74984 47.4971 2.30701 50.1811C2.12876 50.2305 0.22838 50.2388 0 50.1921C0.701851 45.8948 1.40277 41.5966 2.10741 37.2819C2.87703 37.2819 3.63737 37.2819 4.42463 37.2819C5.40221 40.2578 6.3835 43.2438 7.36479 46.2297C7.3815 46.2306 7.39728 46.2325 7.41399 46.2334C7.66837 45.494 7.89582 44.7454 8.13905 44.0024C8.38229 43.2584 8.61902 42.5117 8.85854 41.7659C9.09992 41.0137 9.3413 40.2605 9.5836 39.5083C9.82312 38.7644 10.0645 38.0204 10.3077 37.2654C11.0866 37.2654 11.8563 37.2654 12.6556 37.2654C12.9954 39.2732 13.3352 41.2809 13.6768 43.3023C13.7836 43.2566 13.7956 43.1614 13.8318 43.0891C14.6692 41.4081 15.8603 40.019 17.3866 38.9089C18.7875 37.8904 20.3574 37.2416 22.0526 36.8765C23.1657 36.6368 24.2928 36.5215 25.4309 36.5114C25.4959 36.5105 25.5618 36.5114 25.6213 36.5114C25.6705 36.6779 25.6695 47.3132 25.6241 47.6097C24.8127 47.6097 23.9994 47.6097 23.1583 47.6097C23.1536 47.5163 23.1444 47.4248 23.1444 47.3342C23.1471 44.7811 23.1499 42.228 23.1536 39.6749C23.1536 39.5889 23.1536 39.5028 23.1536 39.3875C22.9448 39.4205 22.7628 39.4424 22.5836 39.4791C19.1477 40.1919 16.8964 42.2573 15.6282 45.4263C15.2365 46.4054 15.0582 47.4358 14.9867 48.4854C14.8763 50.1079 15.0276 51.7038 15.5373 53.2512C16.6968 56.7707 18.9862 59.2708 22.5001 60.6352C23.8722 61.1677 25.3056 61.4057 26.7743 61.3068C30.2873 61.0726 33.0724 59.5178 35.1111 56.6957C36.2484 55.1217 36.9456 53.3592 37.2204 51.443C37.4822 49.6165 37.2956 47.8266 36.7228 46.0723C35.9977 43.8532 34.7917 41.9214 33.1708 40.2331C33.1151 40.1745 33.0603 40.116 32.9888 40.0409C33.6229 39.3811 34.2542 38.7259 34.8892 38.0652C34.9291 38.1 34.9579 38.122 34.983 38.1485C36.3208 39.5642 37.4822 41.1024 38.3381 42.8512C39.0298 44.2641 39.4902 45.7475 39.7233 47.2985C39.7428 47.4248 39.7864 47.5319 39.8783 47.628C40.2153 47.9821 40.5802 48.3024 41.0183 48.5303C41.6264 48.8469 42.2642 48.9421 42.9354 48.7654C43.6874 48.5669 44.5861 47.7991 44.5313 46.6873C44.5072 46.2013 44.3373 45.7703 43.9808 45.4281C43.796 45.2506 43.5927 45.0849 43.3764 44.9468C42.9911 44.6997 42.5947 44.4691 42.1937 44.2476C41.6162 43.9292 41.0508 43.5961 40.5439 43.1733C39.9526 42.6801 39.5385 42.0733 39.3974 41.3175C39.1421 39.9531 39.4587 38.7607 40.6191 37.8968C41.5819 37.1812 42.6653 37.0998 43.7905 37.4704C44.4552 37.6891 45.0206 38.079 45.5432 38.531C45.6936 38.661 45.8366 38.7982 45.9991 38.9474C45.6621 39.3034 45.3362 39.6483 45.0039 40.0007C44.8692 39.8799 44.7513 39.7691 44.6279 39.6648C44.1748 39.2777 43.6819 38.9556 43.0886 38.8193C42.345 38.6481 41.6849 38.7973 41.1604 39.3665C40.6739 39.8945 40.5783 40.5003 40.8559 41.1583C41.0044 41.5106 41.243 41.8043 41.5531 42.0258C41.9374 42.2994 42.3357 42.5547 42.7377 42.8018C43.0645 43.0031 43.4154 43.1669 43.7385 43.3737C44.0922 43.6006 44.4422 43.8386 44.7662 44.1039C45.6064 44.7903 46.0084 45.6797 45.9991 46.7596C45.9889 47.8815 45.5562 48.8048 44.7021 49.5369C43.9826 50.1536 43.1295 50.3897 42.1881 50.3595C41.4463 50.3358 40.7575 50.1335 40.1132 49.7739C40.063 49.7455 40.0101 49.7217 39.9312 49.6815C39.9266 49.7794 39.921 49.8572 39.9201 49.934C39.9108 51.034 39.8115 52.1238 39.584 53.2018C38.444 58.6073 34.4222 62.4837 29.3078 63.6705C28.5401 63.849 27.7593 63.9387 26.9748 63.9963C26.8876 64.0027 26.8012 64.0238 26.7149 64.0384C26.389 64.0421 26.0622 64.0421 25.7355 64.0421Z" fill="white"/>
<path d="M-0.142975 10.9739C-0.0473523 10.9766 0.0491986 10.9812 0.144821 10.9812C7.4864 10.9812 14.828 10.9812 22.1696 10.9812C22.2578 10.9812 22.346 10.9812 22.4295 10.9812C22.4778 11.1615 22.4834 13.1244 22.4351 13.355C20.5505 13.355 18.6612 13.355 16.7562 13.355C16.7144 13.5133 16.6764 13.6533 16.6411 13.7933C15.3562 18.8995 14.0714 24.0067 12.7902 29.1138C12.7484 29.2822 12.7252 29.4597 12.7243 29.6327C12.7196 31.4839 12.7215 33.3343 12.7215 35.1855C12.7215 35.2715 12.7215 35.3584 12.7215 35.4381C12.5377 35.4856 9.97537 35.4994 9.65973 35.4554C9.65694 35.3749 9.6523 35.2898 9.6523 35.2047C9.6523 33.3315 9.65323 31.4592 9.64951 29.586C9.64951 29.4277 9.62816 29.2648 9.58917 29.1102C8.29316 23.9545 6.99344 18.7998 5.69371 13.6441C5.67236 13.5599 5.64822 13.4758 5.61851 13.3696C5.52289 13.3669 5.42913 13.3604 5.33443 13.3604C3.61972 13.3595 1.90502 13.3604 0.190311 13.3595C0.0789065 13.3595 -0.03157 13.3495 -0.142975 13.344C-0.142975 12.5542 -0.142975 11.7636 -0.142975 10.9739Z" fill="white"/>
<path d="M36.2911 13.3429C36.2911 13.4509 36.2911 13.5223 36.2911 13.5946C36.2911 14.7357 36.2892 15.8768 36.2929 17.018C36.2929 17.1479 36.3096 17.2815 36.3412 17.4069C37.2361 20.9748 38.1348 24.541 39.0316 28.108C39.636 30.512 40.2385 32.9169 40.8419 35.3208C40.854 35.3693 40.8605 35.4187 40.8735 35.4837C36.7887 35.4837 32.7187 35.4837 28.6218 35.4837C28.6366 35.405 28.6468 35.3355 28.6645 35.2677C29.3143 32.6862 29.9642 30.1057 30.615 27.5242C31.4663 24.1493 32.3185 20.7744 33.168 17.3987C33.1996 17.2724 33.2144 17.1397 33.2144 17.0088C33.2181 15.875 33.2163 14.7412 33.2163 13.6074C33.2163 13.5287 33.2163 13.45 33.2163 13.3439C29.9614 13.3439 26.7307 13.3439 23.4879 13.3439C23.4879 12.545 23.4879 11.7726 23.4879 10.9866C30.9891 10.9866 38.4811 10.9866 45.9721 10.9866C46.0148 11.1513 46.0306 12.9119 45.9907 13.3356C45.7317 13.3457 45.4671 13.3393 45.2034 13.3402C44.9286 13.3411 44.6539 13.3402 44.38 13.3402C44.1126 13.3402 43.8452 13.3402 43.5788 13.3402C43.3114 13.3402 43.0441 13.3402 42.7776 13.3402C42.5102 13.3402 42.2429 13.3402 41.9764 13.3402C41.7016 13.3402 41.4268 13.3402 41.153 13.3402C40.8856 13.3402 40.6182 13.3402 40.3518 13.3402C40.0853 13.3402 39.817 13.3402 39.5506 13.3402C39.2832 13.3402 39.0158 13.3402 38.7494 13.3402C38.4746 13.3402 38.1998 13.3402 37.9259 13.3402C37.6586 13.3402 37.3912 13.3402 37.1247 13.3402C36.8564 13.3429 36.5909 13.3429 36.2911 13.3429Z" fill="white"/>
<path d="M34.9059 0.116156C37.6855 0.0923636 40.1865 2.31422 40.1874 5.31939C40.1884 8.22025 37.8173 10.5208 34.9031 10.5272C31.9852 10.5336 29.6123 8.17907 29.6216 5.2956C29.6318 2.40847 32.0419 0.0951089 34.9059 0.116156ZM37.627 5.19494C36.7218 5.19494 35.8426 5.19494 34.9579 5.19494C34.9579 5.51248 34.9579 5.81538 34.9579 6.14664C35.4639 6.14664 35.955 6.14664 36.4739 6.14664C36.2651 6.57765 35.9698 6.85767 35.5326 6.96748C35.1436 7.0654 34.7527 7.0535 34.3693 6.93088C33.5969 6.68289 33.0789 5.94898 33.1114 5.15376C33.1448 4.33841 33.6981 3.66764 34.5095 3.49652C35.1993 3.35102 35.8176 3.51665 36.3514 3.97695C36.4164 4.03277 36.4804 4.0895 36.5352 4.13709C36.7784 3.8891 37.004 3.65941 37.2371 3.4224C36.8898 3.03623 36.4572 2.74248 35.9299 2.58875C35.5121 2.46704 35.0851 2.42769 34.6525 2.46338C34.0527 2.51279 33.5106 2.7132 33.0538 3.10944C32.3158 3.75 31.9787 4.55529 32.0985 5.51705C32.2396 6.6536 32.8505 7.44882 33.9562 7.84506C34.308 7.97134 34.6775 8.0052 35.0517 7.9988C36.1908 7.98049 37.0746 7.37378 37.4784 6.326C37.6177 5.96545 37.6762 5.59484 37.627 5.19494Z" fill="white"/>
<path d="M11.0402 -2.11994e-06C13.9015 -0.027455 16.3227 2.28408 16.332 5.16938C16.3412 8.0684 13.9897 10.3918 11.0616 10.4065C8.1669 10.4211 5.77355 8.06932 5.76798 5.21239C5.76241 2.36461 8.13812 -0.0173889 11.0402 -2.11994e-06ZM12.7401 4.68254C12.7577 4.68254 12.7763 4.68254 12.7939 4.68254C12.9898 5.80811 13.1848 6.93277 13.3797 8.05467C13.7409 8.05467 14.0714 8.05467 14.426 8.05467C14.1085 6.1952 13.7938 4.35403 13.4772 2.50553C13.1188 2.50553 12.78 2.50553 12.4254 2.50553C11.9927 3.77019 11.561 5.03303 11.1293 6.29677C11.1163 6.29586 11.1024 6.29403 11.0894 6.29311C10.6652 5.03303 10.2409 3.77294 9.81012 2.49455C9.63281 2.49455 9.46384 2.49455 9.29395 2.49455C9.11756 2.49455 8.94117 2.49455 8.74807 2.49455C8.42221 4.35494 8.10006 6.1952 7.77791 8.03363C8.00351 8.08762 8.66451 8.08213 8.83812 8.02722C9.03586 6.90897 9.23453 5.78615 9.43321 4.66241C9.44713 4.66241 9.46198 4.66241 9.47591 4.66241C9.85933 5.79622 10.2427 6.93002 10.629 8.07115C10.8954 8.07115 11.1396 8.07206 11.3837 8.07115C11.5805 8.07023 11.5815 8.06932 11.6464 7.88081C11.846 7.29972 12.0438 6.71772 12.2425 6.13572C12.4086 5.65072 12.5748 5.16663 12.7401 4.68254Z" fill="white"/>
</g>
<defs>
<clipPath id="clip0_52_146">
<rect width="46" height="64" fill="white"/>
</clipPath>
</defs>
</svg>
