<svg width="48" height="48" viewBox="0 0 48 48" fill="none" xmlns="http://www.w3.org/2000/svg">
<path d="M23.9999 0C19.2532 0 14.613 1.40758 10.6663 4.04473C6.71948 6.68188 3.64334 10.4302 1.82684 14.8156C0.0103378 19.201 -0.464942 24.0266 0.461103 28.6822C1.38715 33.3377 3.67293 37.6141 7.02939 40.9706C10.3858 44.327 14.6622 46.6128 19.3178 47.5388C23.9733 48.4649 28.7989 47.9896 33.1844 46.1731C37.5698 44.3566 41.3181 41.2805 43.9552 37.3337C46.5924 33.3869 48 28.7468 48 24C48 17.6348 45.4714 11.5303 40.9705 7.02944C36.4696 2.52856 30.3651 0 23.9999 0ZM35.8219 15.058C35.6819 17.292 31.542 33.956 31.542 33.956C31.542 33.956 31.2939 34.932 30.4059 34.966C30.1877 34.9728 29.9703 34.9357 29.7666 34.8571C29.5629 34.7784 29.377 34.6597 29.2199 34.508C27.4779 33.008 21.4559 28.962 20.1259 28.072C20.0962 28.0513 20.0713 28.0246 20.0527 27.9936C20.034 27.9625 20.0222 27.9279 20.0179 27.892C19.9979 27.798 20.0999 27.692 20.0999 27.692C20.0999 27.692 30.5859 18.354 30.8599 17.376C30.8819 17.3 30.7999 17.262 30.6919 17.296C29.9939 17.552 17.9219 25.176 16.5899 26.016C16.4942 26.0459 16.3926 26.052 16.2939 26.034L10.4359 24.126C10.4359 24.126 9.73595 23.842 9.96195 23.198C10.0079 23.066 10.1019 22.952 10.3819 22.758C11.6799 21.854 34.4039 13.686 34.4039 13.686C34.4039 13.686 35.0439 13.47 35.424 13.614C35.5162 13.6419 35.5994 13.6935 35.6654 13.7637C35.7314 13.8339 35.7778 13.9202 35.7999 14.014C35.8412 14.1834 35.8587 14.3578 35.852 14.532C35.86 14.692 35.8359 14.832 35.8219 15.058Z" fill="#2E3839"/>
</svg>
