<svg width="48" height="48" viewBox="0 0 48 48" fill="none" xmlns="http://www.w3.org/2000/svg">
<g clip-path="url(#clip0_52_138)">
<path d="M0.196879 23.7926C0.193249 27.9651 1.29572 32.0647 3.393 35.6773L0 48.0001L12.6688 44.6917C16.1717 46.5931 20.097 47.5917 24.0869 47.5966C28.8169 47.5989 33.4414 46.2047 37.3755 43.5905C41.3095 40.9763 44.3763 37.2594 46.188 32.91C47.9997 28.5606 48.4749 23.774 47.5535 19.1557C46.6321 14.5374 44.3555 10.2949 41.0117 6.96465C37.6678 3.63445 33.407 1.36619 28.7679 0.446767C24.1289 -0.472651 19.3202 -0.0019233 14.95 1.79941C10.5797 3.60074 6.84433 6.65175 4.21621 10.5666C1.58808 14.4814 0.185288 19.0841 0.185288 23.7926" fill="#2E3839"/>
<path fill-rule="evenodd" clip-rule="evenodd" d="M17.9146 13.4756C17.4514 12.4496 16.965 12.4381 16.525 12.415H15.367C15.0547 12.4267 14.748 12.5011 14.4654 12.6339C14.1828 12.7666 13.9301 12.9549 13.7226 13.1874C13.0245 13.8465 12.4715 14.6429 12.0988 15.5259C11.726 16.4089 11.5415 17.3594 11.5571 18.3171C11.7576 20.6412 12.6349 22.8566 14.0815 24.6917C14.3942 25.0952 18.3662 31.5159 24.6543 33.9828C29.877 36.0346 30.9423 35.6312 32.0772 35.5274C33.2121 35.4237 35.7366 34.0289 36.2461 32.5995C36.6524 31.68 36.7812 30.6626 36.6166 29.6715C36.4545 29.4064 36.0492 29.2565 35.4586 28.9453C34.868 28.6341 31.7993 27.147 31.2318 26.9511C30.6644 26.7551 30.2591 26.6398 29.8422 27.2508C29.4253 27.8617 28.2442 29.2565 27.8852 29.6715C27.5262 30.0865 27.1556 30.1326 26.5419 29.8214C24.7186 29.0945 23.0342 28.0612 21.5623 26.7666C20.1999 25.5227 19.0293 24.0855 18.0883 22.5015C17.7293 21.8905 18.0883 21.5562 18.3662 21.245C18.6442 20.9338 18.98 20.5303 19.2926 20.173C19.5409 19.8547 19.7472 19.506 19.9064 19.1355C19.9936 18.9702 20.0392 18.7862 20.0392 18.5995C20.0392 18.4127 19.9936 18.2288 19.9064 18.0635C19.7443 17.7522 18.5515 14.709 17.9957 13.4525" fill="#F2962B"/>
</g>
<defs>
<clipPath id="clip0_52_138">
<rect width="48" height="48" fill="white"/>
</clipPath>
</defs>
</svg>
